<svg aria-hidden="true" style="position:absolute;width:0;height:0;overflow:hidden" xmlns="http://www.w3.org/2000/svg"><defs><symbol id="icon-box" viewBox="0 0 34 32"><path d="M30.34 3.56v24.88H3.8V3.56h26.54zm0-3.56H3.8C1.7 0 0 1.6 0 3.56v24.88C0 30.4 1.7 32 3.8 32h26.54c2.09 0 3.8-1.6 3.8-3.56V3.56c0-1.96-1.71-3.56-3.8-3.56z"/></symbol><symbol id="icon-mail" viewBox="0 0 43 32"><path d="M37.33 0h-32c-2.18 0-4 1.81-4 4v24c0 2.19 1.82 4 4 4h32c2.19 0 4-1.81 4-4V4c0-2.19-1.81-4-4-4zm-.8 8.5L22.4 17.34a2.01 2.01 0 0 1-2.14 0L6.14 8.53a1.7 1.7 0 1 1 1.82-2.87L21.33 14l13.42-8.37a1.7 1.7 0 1 1 1.8 2.88h-.02z"/></symbol><symbol id="icon-man" viewBox="0 0 32 32"><path d="M16 16a8 8 0 0 0 0-16 8 8 0 0 0 0 16zm0 4c-5.33 0-16 2.67-16 8v2c0 1.1.9 2 2 2h28c1.1 0 2-.9 2-2v-2c0-5.33-10.67-8-16-8z"/></symbol><symbol id="icon-tel" viewBox="0 0 32 32"><path d="m27.43 20.85-4.2-.46a3.3 3.3 0 0 0-2.73.91l-3.04 3.07A25.08 25.08 0 0 1 6.63 13.6l-.07-.14 3.06-3.06c.71-.7 1.05-1.71.94-2.72l-.46-4.16A3.32 3.32 0 0 0 6.81.59H3.93A3.29 3.29 0 0 0 .62 4.02a28.14 28.14 0 0 0 26.2 26.28h.08a3.29 3.29 0 0 0 3.43-3.3v-2.86a3.3 3.3 0 0 0-2.9-3.3z"/></symbol></defs></svg>